# xmcd
#
# Track frame offsets: 
#        150
#        14276
#        30822
#        48877
#        72133
#        94226
#        118053
#        135777
#        155730
#        175652
#
# Disc length: 2538 seconds
#
# Revision: 0
# Processed by: cddbd v1.5.2PL0 Copyright (c) Steve Scherf et al.
# Submitted via: ExactAudioCopy v1.0b4
#
DISCID=7009e80a
DTITLE=Little G. Weevil - Something Poppin'
DYEAR=2017
DGENRE=Blues
TTITLE0=Here I Come Knocking
TTITLE1=Something Poppin'
TTITLE2=See Me In The Country
TTITLE3=How You Want Me To Deal With This
TTITLE4=You Can't Say Nothing
TTITLE5=Scrub
TTITLE6=Pusherman
TTITLE7=Crawling
TTITLE8=I Don't Want To Feel The Rain
TTITLE9=Top Model
EXTD=
EXTT0=
EXTT1=
EXTT2=
EXTT3=
EXTT4=
EXTT5=
EXTT6=
EXTT7=
EXTT8=
EXTT9=
PLAYORDER=
